PathFileType	4	(X/Y/Z)	TVC_41_Cal_03_0_static_RCNL2025.trc
DataRate	CameraRate	NumFrames	NumMarkers	Units	OrigDataRate	OrigDataStartFrame	OrigNumFrames
100	100	5	27	mm	100	118	234
Frame#	Time	R_Shoulder			L_Shoulder			C7			J_Notch			R_Elbow			L_Elbow			R_Wrist			L_Wrist			R_Asis			L_Asis			R_Psis			L_Psis			Sacral			Thoracic			Sternum			R_Thigh_Lateral			R_Knee_Lateral			R_Shank_Lateral			R_Ankle_Lateral			R_Heel			R_Toe			L_Thigh_Lateral			L_Knee_Lateral			L_Shank_Lateral			L_Ankle_Lateral			L_Heel			L_Toe		
		X1	Y1	Z1	X2	Y2	Z2	X3	Y3	Z3	X4	Y4	Z4	X5	Y5	Z5	X6	Y6	Z6	X7	Y7	Z7	X8	Y8	Z8	X9	Y9	Z9	X10	Y10	Z10	X11	Y11	Z11	X12	Y12	Z12	X13	Y13	Z13	X14	Y14	Z14	X15	Y15	Z15	X16	Y16	Z16	X17	Y17	Z17	X18	Y18	Z18	X19	Y19	Z19	X20	Y20	Z20	X21	Y21	Z21	X22	Y22	Z22	X23	Y23	Z23	X24	Y24	Z24	X25	Y25	Z25	X26	Y26	Z26	X27	Y27	Z27
118	1.17000000	-280.854828	1277.364746	-68.687523	-286.866425	1250.504272	-404.734039	-357.735992	1310.488770	-234.407898	-220.952408	1222.622559	-229.475418	-245.457809	986.688293	-12.453353	-299.860931	952.143188	-446.490356	-186.503471	784.082275	-26.126650	-226.654671	759.282135	-455.976135	-223.523209	859.674805	-86.682930	-224.196228	860.119751	-331.001404	-358.550629	882.098022	-154.257538	-395.548950	883.763062	-242.619781	-377.049789	882.930542	-198.438660	-361.725494	1013.933716	-216.690933	-169.774490	1047.600342	-228.451431	-271.307373	640.794373	6.116208	-262.600433	412.690552	-58.149075	-296.475006	286.342102	-1.410937	-282.212616	73.561600	-65.021233	-317.886993	45.867939	-121.395714	-172.928726	45.504635	-40.250519	-315.565491	593.304932	-417.221863	-308.649811	409.269989	-339.795013	-312.887787	269.279907	-378.874298	-337.912598	66.819275	-300.401093	-376.140167	43.811264	-258.311066	-212.637680	39.490616	-289.424866
119	1.18000000	-280.657440	1277.415771	-68.773102	-286.742523	1250.533325	-404.753143	-357.619171	1310.369385	-234.506302	-220.797546	1222.550903	-229.208328	-245.391983	986.713623	-12.453794	-299.731506	952.129089	-446.572662	-186.483154	784.149628	-26.068995	-226.465462	759.325836	-455.947266	-223.441101	859.713562	-86.739677	-224.332275	860.076294	-331.010406	-358.345947	881.810181	-153.788147	-395.549683	883.779053	-242.637466	-376.947815	882.794617	-198.212807	-361.665619	1013.946472	-216.632492	-169.661652	1047.639160	-228.391098	-271.296783	640.796997	6.190334	-262.658417	412.720001	-58.129433	-296.471558	286.371765	-1.409805	-282.179657	73.531746	-65.098061	-317.939056	45.865398	-121.345879	-172.956879	45.478069	-40.101440	-315.608154	593.297363	-417.297119	-308.648224	409.263885	-339.854645	-312.606537	269.360840	-379.032318	-337.751526	66.743568	-300.466156	-376.096893	43.757988	-258.371124	-212.660614	39.507172	-289.485260
120	1.19000000	-280.569519	1277.426270	-68.758041	-286.571167	1250.505859	-404.772919	-357.470825	1310.422974	-234.497620	-220.736404	1222.580078	-229.461960	-245.097137	986.847290	-12.268522	-299.705811	952.137512	-446.610260	-186.469078	784.175964	-25.993921	-226.402008	759.304749	-456.038834	-223.350433	859.632324	-86.721672	-224.184509	860.188721	-331.036804	-358.371552	881.898987	-153.962189	-395.474457	883.841797	-242.600632	-376.923004	882.870392	-198.281410	-361.660156	1013.943909	-216.627243	-169.622452	1047.660522	-228.436447	-271.186829	640.776306	6.171431	-262.614319	412.690277	-58.145638	-296.505585	286.290314	-1.397334	-282.212860	73.439964	-65.088760	-317.944946	45.864956	-121.336761	-172.875732	45.525990	-40.026291	-315.514252	593.381104	-417.410461	-308.652771	409.268402	-339.847229	-312.704956	269.372711	-379.106628	-337.836670	66.741165	-300.410675	-376.168121	43.811401	-258.294128	-212.699509	39.491631	-289.456085
121	1.20000000	-280.408112	1277.441040	-68.815994	-286.456635	1250.483032	-404.770935	-357.371429	1310.374268	-234.568710	-220.623993	1222.575928	-229.452652	-245.083954	986.807251	-12.387481	-299.624695	952.195496	-446.619415	-186.425316	784.159424	-26.043959	-226.314468	759.301971	-456.020416	-223.261536	859.649658	-86.745972	-224.191833	860.039062	-330.965179	-358.394379	882.037720	-154.268372	-395.395203	883.814148	-242.614548	-376.894791	882.925934	-198.441460	-361.532745	1013.930298	-216.741394	-169.485886	1047.647461	-228.461685	-271.178589	640.750488	6.185827	-262.628479	412.694580	-58.135223	-296.614044	286.338440	-1.315329	-282.198975	73.430450	-65.091202	-317.888062	45.862404	-121.369339	-172.920959	45.513233	-40.232273	-315.522156	593.247742	-417.286774	-308.612488	409.243073	-339.829346	-312.661438	269.301575	-379.037964	-337.924774	66.673569	-300.238281	-376.222534	43.803040	-258.277405	-212.650696	39.429741	-289.426056
122	1.21000000	-280.220612	1277.466553	-68.823982	-286.333496	1250.513672	-404.834076	-357.301086	1310.412842	-234.535492	-220.575790	1222.676270	-229.445496	-245.026459	986.912109	-12.437171	-299.508423	952.165222	-446.659637	-186.366623	784.168976	-25.980841	-226.281998	759.285736	-456.038895	-223.152695	859.650757	-86.721840	-224.119293	860.027954	-331.092102	-358.395447	882.163757	-154.224869	-395.325043	883.798462	-242.562347	-376.860245	882.981110	-198.393608	-361.545898	1013.959595	-216.725449	-169.432175	1047.615112	-228.457458	-271.167511	640.771912	6.139866	-262.687256	412.679626	-58.113674	-296.568146	286.304565	-1.363848	-282.184326	73.452675	-65.143272	-317.916138	45.823666	-121.368584	-172.956024	45.480843	-40.097340	-315.618073	593.413086	-417.217224	-308.632721	409.221466	-339.807770	-312.617767	269.321716	-378.992981	-337.947937	66.857620	-300.339478	-376.228302	43.793415	-258.243011	-212.649185	39.408642	-289.422119
